<mxfile host="app.diagrams.net" modified="2023-10-21T05:21:27.039Z" agent="Mozilla/5.0 (Windows NT 10.0; Win64; x64) AppleWebKit/537.36 (KHTML, like Gecko) Chrome/118.0.0.0 Safari/537.36 Edg/118.0.2088.57" etag="OebimdSlNIBeGCmrOY8_" version="22.0.6" type="google" pages="3">
  <diagram id="lnfRCvvnRWQ6f7j25De5" name="L1">
    <mxGraphModel grid="1" page="1" gridSize="10" guides="1" tooltips="1" connect="1" arrows="1" fold="1" pageScale="1" pageWidth="850" pageHeight="1100" math="0" shadow="0">
      <root>
        <mxCell id="0" />
        <mxCell id="1" parent="0" />
        <mxCell id="y0Bbw8QifF7ln_EiUvMt-1" value="" style="curved=1;endArrow=classic;html=1;rounded=0;entryX=0;entryY=0.5;entryDx=0;entryDy=0;" edge="1" parent="1">
          <mxGeometry width="50" height="50" relative="1" as="geometry">
            <mxPoint x="220" y="-530" as="sourcePoint" />
            <mxPoint x="350" y="-540" as="targetPoint" />
            <Array as="points">
              <mxPoint x="250" y="-540" />
              <mxPoint x="290" y="-540" />
            </Array>
          </mxGeometry>
        </mxCell>
        <mxCell id="y0Bbw8QifF7ln_EiUvMt-2" value="&lt;font style=&quot;font-size: 12px;&quot;&gt;Login&lt;/font&gt;" style="edgeLabel;html=1;align=center;verticalAlign=middle;resizable=0;points=[];" connectable="0" vertex="1" parent="y0Bbw8QifF7ln_EiUvMt-1">
          <mxGeometry x="-0.031" y="-2" relative="1" as="geometry">
            <mxPoint x="4" y="-12" as="offset" />
          </mxGeometry>
        </mxCell>
        <mxCell id="y0Bbw8QifF7ln_EiUvMt-3" style="edgeStyle=orthogonalEdgeStyle;rounded=0;orthogonalLoop=1;jettySize=auto;html=1;entryX=0.5;entryY=1;entryDx=0;entryDy=0;" edge="1" parent="1" source="y0Bbw8QifF7ln_EiUvMt-5" target="y0Bbw8QifF7ln_EiUvMt-7">
          <mxGeometry relative="1" as="geometry" />
        </mxCell>
        <mxCell id="y0Bbw8QifF7ln_EiUvMt-4" style="edgeStyle=orthogonalEdgeStyle;rounded=0;orthogonalLoop=1;jettySize=auto;html=1;entryX=0.5;entryY=0;entryDx=0;entryDy=0;" edge="1" parent="1" source="y0Bbw8QifF7ln_EiUvMt-5" target="y0Bbw8QifF7ln_EiUvMt-9">
          <mxGeometry relative="1" as="geometry" />
        </mxCell>
        <mxCell id="y0Bbw8QifF7ln_EiUvMt-5" value="SSNA Server" style="rounded=0;whiteSpace=wrap;html=1;" vertex="1" parent="1">
          <mxGeometry x="350" y="-560" width="120" height="40" as="geometry" />
        </mxCell>
        <mxCell id="y0Bbw8QifF7ln_EiUvMt-6" style="edgeStyle=orthogonalEdgeStyle;rounded=0;orthogonalLoop=1;jettySize=auto;html=1;entryX=1;entryY=0.25;entryDx=0;entryDy=0;curved=1;exitX=1;exitY=0.5;exitDx=0;exitDy=0;" edge="1" parent="1" source="y0Bbw8QifF7ln_EiUvMt-7" target="y0Bbw8QifF7ln_EiUvMt-5">
          <mxGeometry relative="1" as="geometry">
            <Array as="points">
              <mxPoint x="500" y="-630" />
              <mxPoint x="500" y="-550" />
            </Array>
          </mxGeometry>
        </mxCell>
        <mxCell id="y0Bbw8QifF7ln_EiUvMt-7" value="Admin" style="rounded=0;whiteSpace=wrap;html=1;" vertex="1" parent="1">
          <mxGeometry x="350" y="-650" width="120" height="40" as="geometry" />
        </mxCell>
        <mxCell id="y0Bbw8QifF7ln_EiUvMt-8" style="edgeStyle=orthogonalEdgeStyle;rounded=0;orthogonalLoop=1;jettySize=auto;html=1;entryX=1;entryY=0.75;entryDx=0;entryDy=0;curved=1;exitX=1;exitY=0.25;exitDx=0;exitDy=0;" edge="1" parent="1" source="y0Bbw8QifF7ln_EiUvMt-9" target="y0Bbw8QifF7ln_EiUvMt-5">
          <mxGeometry relative="1" as="geometry">
            <Array as="points">
              <mxPoint x="500" y="-450" />
              <mxPoint x="500" y="-530" />
            </Array>
          </mxGeometry>
        </mxCell>
        <mxCell id="y0Bbw8QifF7ln_EiUvMt-9" value="Student" style="rounded=0;whiteSpace=wrap;html=1;" vertex="1" parent="1">
          <mxGeometry x="350" y="-460" width="120" height="40" as="geometry" />
        </mxCell>
        <mxCell id="y0Bbw8QifF7ln_EiUvMt-10" value="LEVEL - 1" style="text;html=1;align=center;verticalAlign=middle;resizable=0;points=[];autosize=1;strokeColor=none;fillColor=none;fontStyle=1;fontSize=15;" vertex="1" parent="1">
          <mxGeometry x="365" y="-720" width="90" height="30" as="geometry" />
        </mxCell>
        <mxCell id="y0Bbw8QifF7ln_EiUvMt-11" style="edgeStyle=orthogonalEdgeStyle;rounded=0;orthogonalLoop=1;jettySize=auto;html=1;entryX=0.5;entryY=1;entryDx=0;entryDy=0;curved=1;exitX=0.5;exitY=0;exitDx=0;exitDy=0;" edge="1" parent="1" source="y0Bbw8QifF7ln_EiUvMt-7" target="y0Bbw8QifF7ln_EiUvMt-9">
          <mxGeometry relative="1" as="geometry">
            <Array as="points">
              <mxPoint x="410" y="-670" />
              <mxPoint x="560" y="-670" />
              <mxPoint x="560" y="-380" />
              <mxPoint x="410" y="-380" />
            </Array>
          </mxGeometry>
        </mxCell>
      </root>
    </mxGraphModel>
  </diagram>
  <diagram id="C4vCqtk6LnQCOJcE7GFx" name="L2">
    <mxGraphModel grid="1" page="1" gridSize="10" guides="1" tooltips="1" connect="1" arrows="1" fold="1" pageScale="1" pageWidth="850" pageHeight="1100" math="0" shadow="0">
      <root>
        <mxCell id="0" />
        <mxCell id="1" parent="0" />
        <mxCell id="PJ-5e9qX-hdkSGPbhPj0-1" value="" style="curved=1;endArrow=classic;html=1;rounded=0;entryX=0;entryY=0.5;entryDx=0;entryDy=0;" edge="1" parent="1">
          <mxGeometry width="50" height="50" relative="1" as="geometry">
            <mxPoint x="28" y="500" as="sourcePoint" />
            <mxPoint x="158" y="490" as="targetPoint" />
            <Array as="points">
              <mxPoint x="58" y="490" />
              <mxPoint x="98" y="490" />
            </Array>
          </mxGeometry>
        </mxCell>
        <mxCell id="PJ-5e9qX-hdkSGPbhPj0-2" value="&lt;font style=&quot;font-size: 12px;&quot;&gt;Login&lt;/font&gt;" style="edgeLabel;html=1;align=center;verticalAlign=middle;resizable=0;points=[];" connectable="0" vertex="1" parent="PJ-5e9qX-hdkSGPbhPj0-1">
          <mxGeometry x="-0.031" y="-2" relative="1" as="geometry">
            <mxPoint x="4" y="-12" as="offset" />
          </mxGeometry>
        </mxCell>
        <mxCell id="PJ-5e9qX-hdkSGPbhPj0-3" style="edgeStyle=orthogonalEdgeStyle;rounded=0;orthogonalLoop=1;jettySize=auto;html=1;entryX=0;entryY=0.5;entryDx=0;entryDy=0;exitX=0.5;exitY=1;exitDx=0;exitDy=0;curved=1;" edge="1" parent="1" source="PJ-5e9qX-hdkSGPbhPj0-10" target="PJ-5e9qX-hdkSGPbhPj0-27">
          <mxGeometry relative="1" as="geometry" />
        </mxCell>
        <mxCell id="PJ-5e9qX-hdkSGPbhPj0-4" style="edgeStyle=orthogonalEdgeStyle;rounded=0;orthogonalLoop=1;jettySize=auto;html=1;entryX=0;entryY=0.5;entryDx=0;entryDy=0;curved=1;" edge="1" parent="1" source="PJ-5e9qX-hdkSGPbhPj0-10" target="PJ-5e9qX-hdkSGPbhPj0-31">
          <mxGeometry relative="1" as="geometry" />
        </mxCell>
        <mxCell id="PJ-5e9qX-hdkSGPbhPj0-5" value="queries" style="edgeLabel;html=1;align=center;verticalAlign=middle;resizable=0;points=[];rotation=15;" connectable="0" vertex="1" parent="PJ-5e9qX-hdkSGPbhPj0-4">
          <mxGeometry x="-0.3488" y="-2" relative="1" as="geometry">
            <mxPoint x="14" y="-6" as="offset" />
          </mxGeometry>
        </mxCell>
        <mxCell id="PJ-5e9qX-hdkSGPbhPj0-6" style="edgeStyle=orthogonalEdgeStyle;rounded=0;orthogonalLoop=1;jettySize=auto;html=1;entryX=1;entryY=0.5;entryDx=0;entryDy=0;curved=1;exitX=0.149;exitY=-0.023;exitDx=0;exitDy=0;exitPerimeter=0;" edge="1" parent="1" source="PJ-5e9qX-hdkSGPbhPj0-10" target="PJ-5e9qX-hdkSGPbhPj0-38">
          <mxGeometry relative="1" as="geometry" />
        </mxCell>
        <mxCell id="PJ-5e9qX-hdkSGPbhPj0-7" value="timetable" style="edgeLabel;html=1;align=center;verticalAlign=middle;resizable=0;points=[];rotation=59;" connectable="0" vertex="1" parent="PJ-5e9qX-hdkSGPbhPj0-6">
          <mxGeometry x="-0.2744" y="10" relative="1" as="geometry">
            <mxPoint x="6" y="-9" as="offset" />
          </mxGeometry>
        </mxCell>
        <mxCell id="PJ-5e9qX-hdkSGPbhPj0-8" style="edgeStyle=orthogonalEdgeStyle;rounded=0;orthogonalLoop=1;jettySize=auto;html=1;entryX=0;entryY=0.5;entryDx=0;entryDy=0;curved=1;" edge="1" parent="1" source="PJ-5e9qX-hdkSGPbhPj0-10" target="PJ-5e9qX-hdkSGPbhPj0-43">
          <mxGeometry relative="1" as="geometry">
            <Array as="points">
              <mxPoint x="248" y="583" />
            </Array>
          </mxGeometry>
        </mxCell>
        <mxCell id="PJ-5e9qX-hdkSGPbhPj0-9" value="routes" style="edgeLabel;html=1;align=center;verticalAlign=middle;resizable=0;points=[];rotation=52;" connectable="0" vertex="1" parent="PJ-5e9qX-hdkSGPbhPj0-8">
          <mxGeometry x="-0.2412" y="7" relative="1" as="geometry">
            <mxPoint x="-3" y="8" as="offset" />
          </mxGeometry>
        </mxCell>
        <mxCell id="PJ-5e9qX-hdkSGPbhPj0-10" value="SSNA" style="rounded=0;whiteSpace=wrap;html=1;" vertex="1" parent="1">
          <mxGeometry x="158" y="470" width="120" height="40" as="geometry" />
        </mxCell>
        <mxCell id="PJ-5e9qX-hdkSGPbhPj0-11" style="edgeStyle=orthogonalEdgeStyle;rounded=0;orthogonalLoop=1;jettySize=auto;html=1;entryX=0.25;entryY=0;entryDx=0;entryDy=0;curved=1;" edge="1" parent="1" source="PJ-5e9qX-hdkSGPbhPj0-13" target="PJ-5e9qX-hdkSGPbhPj0-17">
          <mxGeometry relative="1" as="geometry" />
        </mxCell>
        <mxCell id="PJ-5e9qX-hdkSGPbhPj0-12" value="find data" style="edgeLabel;html=1;align=center;verticalAlign=middle;resizable=0;points=[];rotation=2.9000000000000004;" connectable="0" vertex="1" parent="PJ-5e9qX-hdkSGPbhPj0-11">
          <mxGeometry x="-0.3432" y="-6" relative="1" as="geometry">
            <mxPoint x="4" y="-13" as="offset" />
          </mxGeometry>
        </mxCell>
        <mxCell id="PJ-5e9qX-hdkSGPbhPj0-13" value="Search&lt;br&gt;course" style="ellipse;whiteSpace=wrap;html=1;aspect=fixed;" vertex="1" parent="1">
          <mxGeometry x="308" y="360" width="60" height="60" as="geometry" />
        </mxCell>
        <mxCell id="PJ-5e9qX-hdkSGPbhPj0-14" value="" style="curved=1;endArrow=classic;html=1;rounded=0;entryX=0;entryY=0.5;entryDx=0;entryDy=0;exitX=0.5;exitY=0;exitDx=0;exitDy=0;" edge="1" parent="1" source="PJ-5e9qX-hdkSGPbhPj0-10" target="PJ-5e9qX-hdkSGPbhPj0-13">
          <mxGeometry width="50" height="50" relative="1" as="geometry">
            <mxPoint x="228" y="460" as="sourcePoint" />
            <mxPoint x="338" y="410" as="targetPoint" />
            <Array as="points">
              <mxPoint x="238" y="410" />
            </Array>
          </mxGeometry>
        </mxCell>
        <mxCell id="PJ-5e9qX-hdkSGPbhPj0-15" value="&lt;font style=&quot;font-size: 12px;&quot;&gt;course material&lt;/font&gt;" style="edgeLabel;html=1;align=center;verticalAlign=middle;resizable=0;points=[];rotation=-37.8;" connectable="0" vertex="1" parent="PJ-5e9qX-hdkSGPbhPj0-14">
          <mxGeometry x="-0.031" y="-2" relative="1" as="geometry">
            <mxPoint x="-1" y="2" as="offset" />
          </mxGeometry>
        </mxCell>
        <mxCell id="PJ-5e9qX-hdkSGPbhPj0-16" style="edgeStyle=orthogonalEdgeStyle;rounded=0;orthogonalLoop=1;jettySize=auto;html=1;entryX=1;entryY=1;entryDx=0;entryDy=0;curved=1;exitX=0.25;exitY=1;exitDx=0;exitDy=0;" edge="1" parent="1" source="PJ-5e9qX-hdkSGPbhPj0-17" target="PJ-5e9qX-hdkSGPbhPj0-13">
          <mxGeometry relative="1" as="geometry" />
        </mxCell>
        <mxCell id="PJ-5e9qX-hdkSGPbhPj0-17" value="Course data" style="html=1;dashed=0;whiteSpace=wrap;shape=partialRectangle;right=0;left=0;" vertex="1" parent="1">
          <mxGeometry x="453" y="420" width="100" height="30" as="geometry" />
        </mxCell>
        <mxCell id="PJ-5e9qX-hdkSGPbhPj0-18" value="Search&lt;br&gt;faculty member" style="ellipse;whiteSpace=wrap;html=1;aspect=fixed;" vertex="1" parent="1">
          <mxGeometry x="68" y="660" width="70" height="70" as="geometry" />
        </mxCell>
        <mxCell id="PJ-5e9qX-hdkSGPbhPj0-19" value="" style="curved=1;endArrow=classic;html=1;rounded=0;entryX=0;entryY=0.5;entryDx=0;entryDy=0;exitX=0;exitY=1;exitDx=0;exitDy=0;" edge="1" parent="1" source="PJ-5e9qX-hdkSGPbhPj0-10" target="PJ-5e9qX-hdkSGPbhPj0-18">
          <mxGeometry width="50" height="50" relative="1" as="geometry">
            <mxPoint x="228" y="690" as="sourcePoint" />
            <mxPoint x="348" y="630" as="targetPoint" />
            <Array as="points">
              <mxPoint x="98" y="550" />
              <mxPoint x="48" y="630" />
            </Array>
          </mxGeometry>
        </mxCell>
        <mxCell id="PJ-5e9qX-hdkSGPbhPj0-20" value="&lt;font style=&quot;font-size: 12px;&quot;&gt;faculty&lt;/font&gt;" style="edgeLabel;html=1;align=center;verticalAlign=middle;resizable=0;points=[];rotation=-66.6;" connectable="0" vertex="1" parent="PJ-5e9qX-hdkSGPbhPj0-19">
          <mxGeometry x="-0.031" y="-2" relative="1" as="geometry">
            <mxPoint x="-18" y="15" as="offset" />
          </mxGeometry>
        </mxCell>
        <mxCell id="PJ-5e9qX-hdkSGPbhPj0-21" style="edgeStyle=orthogonalEdgeStyle;rounded=0;orthogonalLoop=1;jettySize=auto;html=1;curved=1;exitX=0.25;exitY=0;exitDx=0;exitDy=0;" edge="1" parent="1" source="PJ-5e9qX-hdkSGPbhPj0-22" target="PJ-5e9qX-hdkSGPbhPj0-18">
          <mxGeometry relative="1" as="geometry">
            <Array as="points">
              <mxPoint x="218" y="690" />
            </Array>
          </mxGeometry>
        </mxCell>
        <mxCell id="PJ-5e9qX-hdkSGPbhPj0-22" value="Faculty data" style="html=1;dashed=0;whiteSpace=wrap;shape=partialRectangle;right=0;left=0;" vertex="1" parent="1">
          <mxGeometry x="193" y="710" width="100" height="30" as="geometry" />
        </mxCell>
        <mxCell id="PJ-5e9qX-hdkSGPbhPj0-23" style="edgeStyle=orthogonalEdgeStyle;rounded=0;orthogonalLoop=1;jettySize=auto;html=1;entryX=0.219;entryY=1.033;entryDx=0;entryDy=0;entryPerimeter=0;curved=1;" edge="1" parent="1" source="PJ-5e9qX-hdkSGPbhPj0-18" target="PJ-5e9qX-hdkSGPbhPj0-22">
          <mxGeometry relative="1" as="geometry">
            <Array as="points">
              <mxPoint x="103" y="760" />
              <mxPoint x="215" y="760" />
            </Array>
          </mxGeometry>
        </mxCell>
        <mxCell id="PJ-5e9qX-hdkSGPbhPj0-24" value="find data" style="edgeLabel;html=1;align=center;verticalAlign=middle;resizable=0;points=[];" connectable="0" vertex="1" parent="PJ-5e9qX-hdkSGPbhPj0-23">
          <mxGeometry x="0.054" y="4" relative="1" as="geometry">
            <mxPoint y="14" as="offset" />
          </mxGeometry>
        </mxCell>
        <mxCell id="PJ-5e9qX-hdkSGPbhPj0-25" style="edgeStyle=orthogonalEdgeStyle;rounded=0;orthogonalLoop=1;jettySize=auto;html=1;entryX=0.25;entryY=1;entryDx=0;entryDy=0;curved=1;" edge="1" parent="1" source="PJ-5e9qX-hdkSGPbhPj0-27" target="PJ-5e9qX-hdkSGPbhPj0-28">
          <mxGeometry relative="1" as="geometry" />
        </mxCell>
        <mxCell id="PJ-5e9qX-hdkSGPbhPj0-26" value="find events" style="edgeLabel;html=1;align=center;verticalAlign=middle;resizable=0;points=[];rotation=30;" connectable="0" vertex="1" parent="PJ-5e9qX-hdkSGPbhPj0-25">
          <mxGeometry x="-0.1212" y="7" relative="1" as="geometry">
            <mxPoint x="-10" y="13" as="offset" />
          </mxGeometry>
        </mxCell>
        <mxCell id="PJ-5e9qX-hdkSGPbhPj0-27" value="Browse&lt;br&gt;events" style="ellipse;whiteSpace=wrap;html=1;aspect=fixed;" vertex="1" parent="1">
          <mxGeometry x="158" y="605" width="70" height="70" as="geometry" />
        </mxCell>
        <mxCell id="PJ-5e9qX-hdkSGPbhPj0-28" value="Events data" style="html=1;dashed=0;whiteSpace=wrap;shape=partialRectangle;right=0;left=0;" vertex="1" parent="1">
          <mxGeometry x="368" y="645" width="100" height="30" as="geometry" />
        </mxCell>
        <mxCell id="PJ-5e9qX-hdkSGPbhPj0-29" style="edgeStyle=orthogonalEdgeStyle;rounded=0;orthogonalLoop=1;jettySize=auto;html=1;entryX=0.25;entryY=0;entryDx=0;entryDy=0;curved=1;" edge="1" parent="1" source="PJ-5e9qX-hdkSGPbhPj0-31" target="PJ-5e9qX-hdkSGPbhPj0-33">
          <mxGeometry relative="1" as="geometry">
            <Array as="points">
              <mxPoint x="562" y="520" />
              <mxPoint x="562" y="480" />
              <mxPoint x="633" y="480" />
            </Array>
          </mxGeometry>
        </mxCell>
        <mxCell id="PJ-5e9qX-hdkSGPbhPj0-30" value="query" style="edgeLabel;html=1;align=center;verticalAlign=middle;resizable=0;points=[];rotation=-5.1;" connectable="0" vertex="1" parent="PJ-5e9qX-hdkSGPbhPj0-29">
          <mxGeometry x="0.0574" y="-2" relative="1" as="geometry">
            <mxPoint x="7" y="-11" as="offset" />
          </mxGeometry>
        </mxCell>
        <mxCell id="PJ-5e9qX-hdkSGPbhPj0-31" value="Browse&lt;br&gt;queries" style="ellipse;whiteSpace=wrap;html=1;aspect=fixed;" vertex="1" parent="1">
          <mxGeometry x="456" y="490" width="60" height="60" as="geometry" />
        </mxCell>
        <mxCell id="PJ-5e9qX-hdkSGPbhPj0-32" style="edgeStyle=orthogonalEdgeStyle;rounded=0;orthogonalLoop=1;jettySize=auto;html=1;entryX=1;entryY=1;entryDx=0;entryDy=0;curved=1;exitX=0.25;exitY=1;exitDx=0;exitDy=0;" edge="1" parent="1" source="PJ-5e9qX-hdkSGPbhPj0-33" target="PJ-5e9qX-hdkSGPbhPj0-31">
          <mxGeometry relative="1" as="geometry" />
        </mxCell>
        <mxCell id="PJ-5e9qX-hdkSGPbhPj0-33" value="queries data" style="html=1;dashed=0;whiteSpace=wrap;shape=partialRectangle;right=0;left=0;" vertex="1" parent="1">
          <mxGeometry x="608" y="520" width="100" height="30" as="geometry" />
        </mxCell>
        <mxCell id="PJ-5e9qX-hdkSGPbhPj0-37" style="edgeStyle=orthogonalEdgeStyle;rounded=0;orthogonalLoop=1;jettySize=auto;html=1;entryX=0.25;entryY=1;entryDx=0;entryDy=0;curved=1;" edge="1" parent="1" source="PJ-5e9qX-hdkSGPbhPj0-38" target="PJ-5e9qX-hdkSGPbhPj0-40">
          <mxGeometry relative="1" as="geometry" />
        </mxCell>
        <mxCell id="PJ-5e9qX-hdkSGPbhPj0-38" value="Search&lt;br&gt;timetable" style="ellipse;whiteSpace=wrap;html=1;aspect=fixed;" vertex="1" parent="1">
          <mxGeometry x="58" y="370" width="60" height="60" as="geometry" />
        </mxCell>
        <mxCell id="PJ-5e9qX-hdkSGPbhPj0-39" style="edgeStyle=orthogonalEdgeStyle;rounded=0;orthogonalLoop=1;jettySize=auto;html=1;entryX=1;entryY=0;entryDx=0;entryDy=0;curved=1;" edge="1" parent="1" source="PJ-5e9qX-hdkSGPbhPj0-40" target="PJ-5e9qX-hdkSGPbhPj0-38">
          <mxGeometry relative="1" as="geometry">
            <Array as="points">
              <mxPoint x="168" y="350" />
              <mxPoint x="109" y="350" />
            </Array>
          </mxGeometry>
        </mxCell>
        <mxCell id="PJ-5e9qX-hdkSGPbhPj0-40" value="Timetable data" style="html=1;dashed=0;whiteSpace=wrap;shape=partialRectangle;right=0;left=0;" vertex="1" parent="1">
          <mxGeometry x="118" y="250" width="100" height="30" as="geometry" />
        </mxCell>
        <mxCell id="PJ-5e9qX-hdkSGPbhPj0-41" value="filter timetable" style="edgeLabel;html=1;align=center;verticalAlign=middle;resizable=0;points=[];rotation=-45;" connectable="0" vertex="1" parent="1">
          <mxGeometry x="84.99655773709762" y="326.9959422513432" as="geometry">
            <mxPoint x="6.857338405616898" y="4.120304599280435" as="offset" />
          </mxGeometry>
        </mxCell>
        <mxCell id="PJ-5e9qX-hdkSGPbhPj0-42" style="edgeStyle=orthogonalEdgeStyle;rounded=0;orthogonalLoop=1;jettySize=auto;html=1;entryX=0.25;entryY=0;entryDx=0;entryDy=0;curved=1;" edge="1" parent="1" source="PJ-5e9qX-hdkSGPbhPj0-43" target="PJ-5e9qX-hdkSGPbhPj0-45">
          <mxGeometry relative="1" as="geometry">
            <Array as="points">
              <mxPoint x="402" y="583" />
              <mxPoint x="402" y="560" />
              <mxPoint x="461" y="560" />
            </Array>
          </mxGeometry>
        </mxCell>
        <mxCell id="PJ-5e9qX-hdkSGPbhPj0-43" value="Search&lt;br&gt;bus routes" style="ellipse;whiteSpace=wrap;html=1;aspect=fixed;" vertex="1" parent="1">
          <mxGeometry x="303" y="550" width="65" height="65" as="geometry" />
        </mxCell>
        <mxCell id="PJ-5e9qX-hdkSGPbhPj0-44" style="edgeStyle=orthogonalEdgeStyle;rounded=0;orthogonalLoop=1;jettySize=auto;html=1;entryX=1;entryY=1;entryDx=0;entryDy=0;curved=1;exitX=0.212;exitY=1.017;exitDx=0;exitDy=0;exitPerimeter=0;" edge="1" parent="1" source="PJ-5e9qX-hdkSGPbhPj0-45" target="PJ-5e9qX-hdkSGPbhPj0-43">
          <mxGeometry relative="1" as="geometry">
            <Array as="points">
              <mxPoint x="457" y="630" />
              <mxPoint x="359" y="630" />
            </Array>
          </mxGeometry>
        </mxCell>
        <mxCell id="PJ-5e9qX-hdkSGPbhPj0-45" value="Bus data" style="html=1;dashed=0;whiteSpace=wrap;shape=partialRectangle;right=0;left=0;" vertex="1" parent="1">
          <mxGeometry x="436" y="585" width="100" height="30" as="geometry" />
        </mxCell>
        <mxCell id="PJ-5e9qX-hdkSGPbhPj0-46" style="edgeStyle=orthogonalEdgeStyle;rounded=0;orthogonalLoop=1;jettySize=auto;html=1;entryX=0.965;entryY=0.261;entryDx=0;entryDy=0;entryPerimeter=0;curved=1;exitX=0.25;exitY=0;exitDx=0;exitDy=0;" edge="1" parent="1" source="PJ-5e9qX-hdkSGPbhPj0-28" target="PJ-5e9qX-hdkSGPbhPj0-27">
          <mxGeometry relative="1" as="geometry" />
        </mxCell>
        <mxCell id="PJ-5e9qX-hdkSGPbhPj0-47" value="LEVEL - 2" style="text;html=1;align=center;verticalAlign=middle;resizable=0;points=[];autosize=1;strokeColor=none;fillColor=none;fontStyle=1;fontSize=15;" vertex="1" parent="1">
          <mxGeometry x="373" y="180" width="90" height="30" as="geometry" />
        </mxCell>
      </root>
    </mxGraphModel>
  </diagram>
  <diagram name="L3" id="b520641d-4fe3-3701-9064-5fc419738815">
    <mxGraphModel grid="1" page="1" gridSize="10" guides="1" tooltips="1" connect="1" arrows="1" fold="1" pageScale="1" pageWidth="1100" pageHeight="850" background="none" math="0" shadow="0">
      <root>
        <mxCell id="0" />
        <mxCell id="1" parent="0" />
        <mxCell id="fYyy_811mpqIWrKKwp8T-56" value="" style="curved=1;endArrow=classic;html=1;rounded=0;entryX=0;entryY=0.5;entryDx=0;entryDy=0;" edge="1" parent="1">
          <mxGeometry width="50" height="50" relative="1" as="geometry">
            <mxPoint x="130" y="1041" as="sourcePoint" />
            <mxPoint x="260" y="1031" as="targetPoint" />
            <Array as="points">
              <mxPoint x="160" y="1031" />
              <mxPoint x="200" y="1031" />
            </Array>
          </mxGeometry>
        </mxCell>
        <mxCell id="fYyy_811mpqIWrKKwp8T-57" value="&lt;font style=&quot;font-size: 12px;&quot;&gt;Login&lt;/font&gt;" style="edgeLabel;html=1;align=center;verticalAlign=middle;resizable=0;points=[];" connectable="0" vertex="1" parent="fYyy_811mpqIWrKKwp8T-56">
          <mxGeometry x="-0.031" y="-2" relative="1" as="geometry">
            <mxPoint x="4" y="-12" as="offset" />
          </mxGeometry>
        </mxCell>
        <mxCell id="fYyy_811mpqIWrKKwp8T-59" style="edgeStyle=orthogonalEdgeStyle;rounded=0;orthogonalLoop=1;jettySize=auto;html=1;entryX=0.006;entryY=0.364;entryDx=0;entryDy=0;curved=1;entryPerimeter=0;" edge="1" parent="1" source="fYyy_811mpqIWrKKwp8T-65" target="fYyy_811mpqIWrKKwp8T-86">
          <mxGeometry relative="1" as="geometry" />
        </mxCell>
        <mxCell id="fYyy_811mpqIWrKKwp8T-60" value="queries" style="edgeLabel;html=1;align=center;verticalAlign=middle;resizable=0;points=[];rotation=1.7999999999999998;" connectable="0" vertex="1" parent="fYyy_811mpqIWrKKwp8T-59">
          <mxGeometry x="-0.3488" y="-2" relative="1" as="geometry">
            <mxPoint x="72" y="5" as="offset" />
          </mxGeometry>
        </mxCell>
        <mxCell id="fYyy_811mpqIWrKKwp8T-61" style="edgeStyle=orthogonalEdgeStyle;rounded=0;orthogonalLoop=1;jettySize=auto;html=1;entryX=1;entryY=0.5;entryDx=0;entryDy=0;curved=1;exitX=0.149;exitY=-0.023;exitDx=0;exitDy=0;exitPerimeter=0;" edge="1" parent="1" source="fYyy_811mpqIWrKKwp8T-65" target="fYyy_811mpqIWrKKwp8T-93">
          <mxGeometry relative="1" as="geometry" />
        </mxCell>
        <mxCell id="fYyy_811mpqIWrKKwp8T-62" value="timetable" style="edgeLabel;html=1;align=center;verticalAlign=middle;resizable=0;points=[];rotation=30;" connectable="0" vertex="1" parent="fYyy_811mpqIWrKKwp8T-61">
          <mxGeometry x="-0.2744" y="10" relative="1" as="geometry">
            <mxPoint x="-36" y="-4" as="offset" />
          </mxGeometry>
        </mxCell>
        <mxCell id="fYyy_811mpqIWrKKwp8T-63" style="edgeStyle=orthogonalEdgeStyle;rounded=0;orthogonalLoop=1;jettySize=auto;html=1;entryX=0;entryY=0.5;entryDx=0;entryDy=0;curved=1;" edge="1" parent="1" source="fYyy_811mpqIWrKKwp8T-65" target="fYyy_811mpqIWrKKwp8T-98">
          <mxGeometry relative="1" as="geometry">
            <Array as="points">
              <mxPoint x="350" y="1124" />
            </Array>
          </mxGeometry>
        </mxCell>
        <mxCell id="fYyy_811mpqIWrKKwp8T-64" value="routes" style="edgeLabel;html=1;align=center;verticalAlign=middle;resizable=0;points=[];rotation=52;" connectable="0" vertex="1" parent="fYyy_811mpqIWrKKwp8T-63">
          <mxGeometry x="-0.2412" y="7" relative="1" as="geometry">
            <mxPoint x="-3" y="8" as="offset" />
          </mxGeometry>
        </mxCell>
        <mxCell id="fYyy_811mpqIWrKKwp8T-116" style="edgeStyle=orthogonalEdgeStyle;rounded=0;orthogonalLoop=1;jettySize=auto;html=1;curved=1;exitX=0.25;exitY=1;exitDx=0;exitDy=0;" edge="1" parent="1" source="fYyy_811mpqIWrKKwp8T-65" target="fYyy_811mpqIWrKKwp8T-82">
          <mxGeometry relative="1" as="geometry" />
        </mxCell>
        <mxCell id="fYyy_811mpqIWrKKwp8T-65" value="SSNA" style="rounded=0;whiteSpace=wrap;html=1;" vertex="1" parent="1">
          <mxGeometry x="260" y="1011" width="120" height="40" as="geometry" />
        </mxCell>
        <mxCell id="fYyy_811mpqIWrKKwp8T-66" style="edgeStyle=orthogonalEdgeStyle;rounded=0;orthogonalLoop=1;jettySize=auto;html=1;entryX=0.25;entryY=0;entryDx=0;entryDy=0;curved=1;exitX=1;exitY=0.5;exitDx=0;exitDy=0;" edge="1" parent="1" source="fYyy_811mpqIWrKKwp8T-105" target="fYyy_811mpqIWrKKwp8T-72">
          <mxGeometry relative="1" as="geometry">
            <mxPoint x="579" y="881" as="sourcePoint" />
            <Array as="points">
              <mxPoint x="565" y="873" />
              <mxPoint x="689" y="873" />
            </Array>
          </mxGeometry>
        </mxCell>
        <mxCell id="fYyy_811mpqIWrKKwp8T-67" value="find data" style="edgeLabel;html=1;align=center;verticalAlign=middle;resizable=0;points=[];rotation=0;" connectable="0" vertex="1" parent="fYyy_811mpqIWrKKwp8T-66">
          <mxGeometry x="-0.3432" y="-6" relative="1" as="geometry">
            <mxPoint x="4" y="-14" as="offset" />
          </mxGeometry>
        </mxCell>
        <mxCell id="fYyy_811mpqIWrKKwp8T-68" value="Search&lt;br&gt;course" style="ellipse;whiteSpace=wrap;html=1;aspect=fixed;" vertex="1" parent="1">
          <mxGeometry x="410" y="901" width="60" height="60" as="geometry" />
        </mxCell>
        <mxCell id="fYyy_811mpqIWrKKwp8T-69" value="" style="curved=1;endArrow=classic;html=1;rounded=0;entryX=0;entryY=0.5;entryDx=0;entryDy=0;exitX=0.676;exitY=0.044;exitDx=0;exitDy=0;exitPerimeter=0;" edge="1" parent="1" source="fYyy_811mpqIWrKKwp8T-65" target="fYyy_811mpqIWrKKwp8T-68">
          <mxGeometry width="50" height="50" relative="1" as="geometry">
            <mxPoint x="330" y="1001" as="sourcePoint" />
            <mxPoint x="440" y="951" as="targetPoint" />
            <Array as="points">
              <mxPoint x="340" y="951" />
            </Array>
          </mxGeometry>
        </mxCell>
        <mxCell id="fYyy_811mpqIWrKKwp8T-70" value="&lt;font style=&quot;font-size: 12px;&quot;&gt;course material&lt;/font&gt;" style="edgeLabel;html=1;align=center;verticalAlign=middle;resizable=0;points=[];rotation=-45;" connectable="0" vertex="1" parent="fYyy_811mpqIWrKKwp8T-69">
          <mxGeometry x="-0.031" y="-2" relative="1" as="geometry">
            <mxPoint x="-8" y="9" as="offset" />
          </mxGeometry>
        </mxCell>
        <mxCell id="fYyy_811mpqIWrKKwp8T-71" style="edgeStyle=orthogonalEdgeStyle;rounded=0;orthogonalLoop=1;jettySize=auto;html=1;entryX=0.977;entryY=0.678;entryDx=0;entryDy=0;curved=1;exitX=0.25;exitY=1;exitDx=0;exitDy=0;entryPerimeter=0;" edge="1" parent="1" source="fYyy_811mpqIWrKKwp8T-72" target="fYyy_811mpqIWrKKwp8T-105">
          <mxGeometry relative="1" as="geometry">
            <mxPoint x="570.0032034355922" y="902.2132034355923" as="targetPoint" />
          </mxGeometry>
        </mxCell>
        <mxCell id="fYyy_811mpqIWrKKwp8T-72" value="Course data" style="html=1;dashed=0;whiteSpace=wrap;shape=partialRectangle;right=0;left=0;" vertex="1" parent="1">
          <mxGeometry x="663.79" y="907" width="100" height="30" as="geometry" />
        </mxCell>
        <mxCell id="fYyy_811mpqIWrKKwp8T-73" value="Search&lt;br&gt;faculty member" style="ellipse;whiteSpace=wrap;html=1;aspect=fixed;" vertex="1" parent="1">
          <mxGeometry x="40" y="1205" width="70" height="70" as="geometry" />
        </mxCell>
        <mxCell id="fYyy_811mpqIWrKKwp8T-74" value="" style="curved=1;endArrow=classic;html=1;rounded=0;entryX=0.767;entryY=0.072;entryDx=0;entryDy=0;exitX=0.052;exitY=1.037;exitDx=0;exitDy=0;entryPerimeter=0;exitPerimeter=0;" edge="1" parent="1" source="fYyy_811mpqIWrKKwp8T-65" target="fYyy_811mpqIWrKKwp8T-73">
          <mxGeometry width="50" height="50" relative="1" as="geometry">
            <mxPoint x="330" y="1231" as="sourcePoint" />
            <mxPoint x="450" y="1171" as="targetPoint" />
            <Array as="points">
              <mxPoint x="200" y="1091" />
              <mxPoint x="140" y="1150" />
            </Array>
          </mxGeometry>
        </mxCell>
        <mxCell id="fYyy_811mpqIWrKKwp8T-75" value="&lt;font style=&quot;font-size: 12px;&quot;&gt;faculty&lt;/font&gt;" style="edgeLabel;html=1;align=center;verticalAlign=middle;resizable=0;points=[];rotation=-55;" connectable="0" vertex="1" parent="fYyy_811mpqIWrKKwp8T-74">
          <mxGeometry x="-0.031" y="-2" relative="1" as="geometry">
            <mxPoint x="-24" y="13" as="offset" />
          </mxGeometry>
        </mxCell>
        <mxCell id="fYyy_811mpqIWrKKwp8T-76" style="edgeStyle=orthogonalEdgeStyle;rounded=0;orthogonalLoop=1;jettySize=auto;html=1;curved=1;exitX=0.25;exitY=0;exitDx=0;exitDy=0;entryX=1;entryY=1;entryDx=0;entryDy=0;" edge="1" parent="1" source="fYyy_811mpqIWrKKwp8T-77" target="fYyy_811mpqIWrKKwp8T-133">
          <mxGeometry relative="1" as="geometry">
            <Array as="points">
              <mxPoint x="155" y="1430" />
              <mxPoint x="100" y="1430" />
            </Array>
            <mxPoint x="74.6410161513777" y="1440" as="targetPoint" />
          </mxGeometry>
        </mxCell>
        <mxCell id="fYyy_811mpqIWrKKwp8T-77" value="Faculty data" style="html=1;dashed=0;whiteSpace=wrap;shape=partialRectangle;right=0;left=0;" vertex="1" parent="1">
          <mxGeometry x="130" y="1460" width="100" height="30" as="geometry" />
        </mxCell>
        <mxCell id="fYyy_811mpqIWrKKwp8T-78" style="edgeStyle=orthogonalEdgeStyle;rounded=0;orthogonalLoop=1;jettySize=auto;html=1;entryX=0.219;entryY=1.033;entryDx=0;entryDy=0;entryPerimeter=0;curved=1;exitX=0.5;exitY=1;exitDx=0;exitDy=0;" edge="1" parent="1" source="fYyy_811mpqIWrKKwp8T-133" target="fYyy_811mpqIWrKKwp8T-77">
          <mxGeometry relative="1" as="geometry">
            <Array as="points">
              <mxPoint x="60" y="1390" />
              <mxPoint x="60" y="1510" />
              <mxPoint x="152" y="1510" />
            </Array>
            <mxPoint x="40" y="1480" as="sourcePoint" />
          </mxGeometry>
        </mxCell>
        <mxCell id="fYyy_811mpqIWrKKwp8T-79" value="find data" style="edgeLabel;html=1;align=center;verticalAlign=middle;resizable=0;points=[];" connectable="0" vertex="1" parent="fYyy_811mpqIWrKKwp8T-78">
          <mxGeometry x="0.054" y="4" relative="1" as="geometry">
            <mxPoint y="14" as="offset" />
          </mxGeometry>
        </mxCell>
        <mxCell id="fYyy_811mpqIWrKKwp8T-80" style="edgeStyle=orthogonalEdgeStyle;rounded=0;orthogonalLoop=1;jettySize=auto;html=1;entryX=0.25;entryY=1;entryDx=0;entryDy=0;curved=1;exitX=0.5;exitY=1;exitDx=0;exitDy=0;" edge="1" parent="1" source="fYyy_811mpqIWrKKwp8T-117" target="fYyy_811mpqIWrKKwp8T-83">
          <mxGeometry relative="1" as="geometry">
            <mxPoint x="288" y="1358.95" as="sourcePoint" />
          </mxGeometry>
        </mxCell>
        <mxCell id="fYyy_811mpqIWrKKwp8T-81" value="find events" style="edgeLabel;html=1;align=center;verticalAlign=middle;resizable=0;points=[];rotation=0;" connectable="0" vertex="1" parent="fYyy_811mpqIWrKKwp8T-80">
          <mxGeometry x="-0.1212" y="7" relative="1" as="geometry">
            <mxPoint x="16" y="16" as="offset" />
          </mxGeometry>
        </mxCell>
        <mxCell id="fYyy_811mpqIWrKKwp8T-118" style="edgeStyle=orthogonalEdgeStyle;rounded=0;orthogonalLoop=1;jettySize=auto;html=1;entryX=0.5;entryY=0;entryDx=0;entryDy=0;curved=1;" edge="1" parent="1" source="fYyy_811mpqIWrKKwp8T-82" target="fYyy_811mpqIWrKKwp8T-117">
          <mxGeometry relative="1" as="geometry" />
        </mxCell>
        <mxCell id="fYyy_811mpqIWrKKwp8T-82" value="Browse&lt;br&gt;events" style="ellipse;whiteSpace=wrap;html=1;aspect=fixed;" vertex="1" parent="1">
          <mxGeometry x="215" y="1151" width="70" height="70" as="geometry" />
        </mxCell>
        <mxCell id="fYyy_811mpqIWrKKwp8T-83" value="Events data" style="html=1;dashed=0;whiteSpace=wrap;shape=partialRectangle;right=0;left=0;" vertex="1" parent="1">
          <mxGeometry x="450" y="1275" width="100" height="30" as="geometry" />
        </mxCell>
        <mxCell id="fYyy_811mpqIWrKKwp8T-84" style="edgeStyle=orthogonalEdgeStyle;rounded=0;orthogonalLoop=1;jettySize=auto;html=1;entryX=0.25;entryY=0;entryDx=0;entryDy=0;curved=1;exitX=0.985;exitY=0.375;exitDx=0;exitDy=0;exitPerimeter=0;" edge="1" parent="1" source="fYyy_811mpqIWrKKwp8T-111" target="fYyy_811mpqIWrKKwp8T-88">
          <mxGeometry relative="1" as="geometry">
            <Array as="points">
              <mxPoint x="743" y="1010" />
              <mxPoint x="915" y="1010" />
            </Array>
            <mxPoint x="797.79" y="1070" as="sourcePoint" />
          </mxGeometry>
        </mxCell>
        <mxCell id="fYyy_811mpqIWrKKwp8T-85" value="query" style="edgeLabel;html=1;align=center;verticalAlign=middle;resizable=0;points=[];rotation=2.200000000000001;" connectable="0" vertex="1" parent="fYyy_811mpqIWrKKwp8T-84">
          <mxGeometry x="0.0574" y="-2" relative="1" as="geometry">
            <mxPoint x="-34" y="-11" as="offset" />
          </mxGeometry>
        </mxCell>
        <mxCell id="fYyy_811mpqIWrKKwp8T-112" style="edgeStyle=orthogonalEdgeStyle;rounded=0;orthogonalLoop=1;jettySize=auto;html=1;curved=1;exitX=0.5;exitY=0;exitDx=0;exitDy=0;" edge="1" parent="1" source="fYyy_811mpqIWrKKwp8T-86" target="fYyy_811mpqIWrKKwp8T-111">
          <mxGeometry relative="1" as="geometry">
            <Array as="points">
              <mxPoint x="588" y="1011" />
            </Array>
          </mxGeometry>
        </mxCell>
        <mxCell id="fYyy_811mpqIWrKKwp8T-115" style="edgeStyle=orthogonalEdgeStyle;rounded=0;orthogonalLoop=1;jettySize=auto;html=1;entryX=0.5;entryY=0;entryDx=0;entryDy=0;curved=1;exitX=0.932;exitY=0.721;exitDx=0;exitDy=0;exitPerimeter=0;" edge="1" parent="1" source="fYyy_811mpqIWrKKwp8T-86" target="fYyy_811mpqIWrKKwp8T-114">
          <mxGeometry relative="1" as="geometry">
            <Array as="points">
              <mxPoint x="649" y="1074" />
              <mxPoint x="705" y="1074" />
            </Array>
          </mxGeometry>
        </mxCell>
        <mxCell id="Is7_Ylc0VgrU2KLMRWV5-23" style="edgeStyle=orthogonalEdgeStyle;rounded=0;orthogonalLoop=1;jettySize=auto;html=1;entryX=1;entryY=0.75;entryDx=0;entryDy=0;curved=1;exitX=-0.003;exitY=0.649;exitDx=0;exitDy=0;exitPerimeter=0;" edge="1" parent="1" source="fYyy_811mpqIWrKKwp8T-86" target="fYyy_811mpqIWrKKwp8T-65">
          <mxGeometry relative="1" as="geometry">
            <Array as="points">
              <mxPoint x="450" y="1070" />
              <mxPoint x="450" y="1041" />
            </Array>
          </mxGeometry>
        </mxCell>
        <mxCell id="fYyy_811mpqIWrKKwp8T-86" value="Browse&lt;br&gt;queries" style="ellipse;whiteSpace=wrap;html=1;aspect=fixed;" vertex="1" parent="1">
          <mxGeometry x="558" y="1031" width="60" height="60" as="geometry" />
        </mxCell>
        <mxCell id="fYyy_811mpqIWrKKwp8T-87" style="edgeStyle=orthogonalEdgeStyle;rounded=0;orthogonalLoop=1;jettySize=auto;html=1;entryX=1.005;entryY=0.595;entryDx=0;entryDy=0;curved=1;exitX=0.102;exitY=0;exitDx=0;exitDy=0;exitPerimeter=0;entryPerimeter=0;" edge="1" parent="1" source="fYyy_811mpqIWrKKwp8T-88" target="fYyy_811mpqIWrKKwp8T-111">
          <mxGeometry relative="1" as="geometry">
            <mxPoint x="789.003203435592" y="1091.2132034355918" as="targetPoint" />
          </mxGeometry>
        </mxCell>
        <mxCell id="Is7_Ylc0VgrU2KLMRWV5-20" style="edgeStyle=orthogonalEdgeStyle;rounded=0;orthogonalLoop=1;jettySize=auto;html=1;curved=1;" edge="1" parent="1" source="fYyy_811mpqIWrKKwp8T-88" target="fYyy_811mpqIWrKKwp8T-114">
          <mxGeometry relative="1" as="geometry">
            <Array as="points">
              <mxPoint x="940" y="1150" />
            </Array>
          </mxGeometry>
        </mxCell>
        <mxCell id="fYyy_811mpqIWrKKwp8T-88" value="queries data" style="html=1;dashed=0;whiteSpace=wrap;shape=partialRectangle;right=0;left=0;" vertex="1" parent="1">
          <mxGeometry x="889.79" y="1070" width="100" height="30" as="geometry" />
        </mxCell>
        <mxCell id="fYyy_811mpqIWrKKwp8T-89" style="edgeStyle=orthogonalEdgeStyle;rounded=0;orthogonalLoop=1;jettySize=auto;html=1;curved=1;" edge="1" parent="1" source="fYyy_811mpqIWrKKwp8T-91" target="fYyy_811mpqIWrKKwp8T-88">
          <mxGeometry relative="1" as="geometry" />
        </mxCell>
        <mxCell id="fYyy_811mpqIWrKKwp8T-90" value="Approval" style="edgeLabel;html=1;align=center;verticalAlign=middle;resizable=0;points=[];rotation=-1.5;" connectable="0" vertex="1" parent="fYyy_811mpqIWrKKwp8T-89">
          <mxGeometry x="0.0845" relative="1" as="geometry">
            <mxPoint x="17" y="7" as="offset" />
          </mxGeometry>
        </mxCell>
        <mxCell id="Is7_Ylc0VgrU2KLMRWV5-15" style="edgeStyle=orthogonalEdgeStyle;rounded=0;orthogonalLoop=1;jettySize=auto;html=1;entryX=1;entryY=0.5;entryDx=0;entryDy=0;curved=1;exitX=0.621;exitY=1.03;exitDx=0;exitDy=0;exitPerimeter=0;" edge="1" parent="1" source="fYyy_811mpqIWrKKwp8T-91" target="Is7_Ylc0VgrU2KLMRWV5-10">
          <mxGeometry relative="1" as="geometry" />
        </mxCell>
        <mxCell id="fYyy_811mpqIWrKKwp8T-91" value="Admin" style="rounded=0;whiteSpace=wrap;html=1;" vertex="1" parent="1">
          <mxGeometry x="989.79" y="980" width="110" height="30" as="geometry" />
        </mxCell>
        <mxCell id="fYyy_811mpqIWrKKwp8T-92" style="edgeStyle=orthogonalEdgeStyle;rounded=0;orthogonalLoop=1;jettySize=auto;html=1;entryX=0.25;entryY=1;entryDx=0;entryDy=0;curved=1;exitX=0.5;exitY=0;exitDx=0;exitDy=0;" edge="1" parent="1" source="fYyy_811mpqIWrKKwp8T-93" target="fYyy_811mpqIWrKKwp8T-95">
          <mxGeometry relative="1" as="geometry">
            <mxPoint x="153" y="898.21" as="sourcePoint" />
          </mxGeometry>
        </mxCell>
        <mxCell id="fYyy_811mpqIWrKKwp8T-93" value="Search&lt;br&gt;timetable" style="ellipse;whiteSpace=wrap;html=1;aspect=fixed;" vertex="1" parent="1">
          <mxGeometry x="90" y="907" width="60" height="60" as="geometry" />
        </mxCell>
        <mxCell id="fYyy_811mpqIWrKKwp8T-94" style="edgeStyle=orthogonalEdgeStyle;rounded=0;orthogonalLoop=1;jettySize=auto;html=1;entryX=1;entryY=0;entryDx=0;entryDy=0;curved=1;" edge="1" parent="1" source="fYyy_811mpqIWrKKwp8T-95" target="fYyy_811mpqIWrKKwp8T-93">
          <mxGeometry relative="1" as="geometry">
            <Array as="points">
              <mxPoint x="233" y="878" />
              <mxPoint x="174" y="878" />
              <mxPoint x="174" y="916" />
            </Array>
            <mxPoint x="174.21320343562093" y="906.9967965643791" as="targetPoint" />
          </mxGeometry>
        </mxCell>
        <mxCell id="fYyy_811mpqIWrKKwp8T-95" value="Timetable data" style="html=1;dashed=0;whiteSpace=wrap;shape=partialRectangle;right=0;left=0;" vertex="1" parent="1">
          <mxGeometry x="183" y="778.21" width="100" height="30" as="geometry" />
        </mxCell>
        <mxCell id="fYyy_811mpqIWrKKwp8T-96" value="filter timetable" style="edgeLabel;html=1;align=center;verticalAlign=middle;resizable=0;points=[];rotation=-45;" connectable="0" vertex="1" parent="1">
          <mxGeometry x="149.99655773709762" y="855.2059422513432" as="geometry">
            <mxPoint x="-12.23454468641989" y="-16.385792055129443" as="offset" />
          </mxGeometry>
        </mxCell>
        <mxCell id="fYyy_811mpqIWrKKwp8T-97" style="edgeStyle=orthogonalEdgeStyle;rounded=0;orthogonalLoop=1;jettySize=auto;html=1;entryX=0.25;entryY=0;entryDx=0;entryDy=0;curved=1;exitX=1;exitY=0.5;exitDx=0;exitDy=0;" edge="1" parent="1" source="Is7_Ylc0VgrU2KLMRWV5-5" target="fYyy_811mpqIWrKKwp8T-100">
          <mxGeometry relative="1" as="geometry">
            <Array as="points">
              <mxPoint x="602" y="1188" />
              <mxPoint x="660" y="1189" />
            </Array>
            <mxPoint x="567.5199959977585" y="1222.526129032258" as="sourcePoint" />
          </mxGeometry>
        </mxCell>
        <mxCell id="Is7_Ylc0VgrU2KLMRWV5-6" style="edgeStyle=orthogonalEdgeStyle;rounded=0;orthogonalLoop=1;jettySize=auto;html=1;entryX=0.5;entryY=0;entryDx=0;entryDy=0;curved=1;" edge="1" parent="1" source="fYyy_811mpqIWrKKwp8T-98" target="Is7_Ylc0VgrU2KLMRWV5-5">
          <mxGeometry relative="1" as="geometry" />
        </mxCell>
        <mxCell id="Is7_Ylc0VgrU2KLMRWV5-7" style="edgeStyle=orthogonalEdgeStyle;rounded=0;orthogonalLoop=1;jettySize=auto;html=1;entryX=0;entryY=0.5;entryDx=0;entryDy=0;curved=1;exitX=0.5;exitY=1;exitDx=0;exitDy=0;" edge="1" parent="1" source="fYyy_811mpqIWrKKwp8T-98" target="Is7_Ylc0VgrU2KLMRWV5-5">
          <mxGeometry relative="1" as="geometry" />
        </mxCell>
        <mxCell id="Is7_Ylc0VgrU2KLMRWV5-21" style="edgeStyle=orthogonalEdgeStyle;rounded=0;orthogonalLoop=1;jettySize=auto;html=1;entryX=0.9;entryY=1.05;entryDx=0;entryDy=0;curved=1;exitX=0.014;exitY=0.295;exitDx=0;exitDy=0;exitPerimeter=0;entryPerimeter=0;" edge="1" parent="1" source="fYyy_811mpqIWrKKwp8T-98" target="fYyy_811mpqIWrKKwp8T-65">
          <mxGeometry relative="1" as="geometry" />
        </mxCell>
        <mxCell id="fYyy_811mpqIWrKKwp8T-98" value="Browse&lt;br&gt;buses" style="ellipse;whiteSpace=wrap;html=1;aspect=fixed;" vertex="1" parent="1">
          <mxGeometry x="405" y="1091" width="65" height="65" as="geometry" />
        </mxCell>
        <mxCell id="fYyy_811mpqIWrKKwp8T-99" style="edgeStyle=orthogonalEdgeStyle;rounded=0;orthogonalLoop=1;jettySize=auto;html=1;entryX=0.5;entryY=1;entryDx=0;entryDy=0;curved=1;exitX=0.212;exitY=1.017;exitDx=0;exitDy=0;exitPerimeter=0;" edge="1" parent="1" source="fYyy_811mpqIWrKKwp8T-100" target="Is7_Ylc0VgrU2KLMRWV5-5">
          <mxGeometry relative="1" as="geometry">
            <Array as="points">
              <mxPoint x="657" y="1262" />
              <mxPoint x="526" y="1262" />
              <mxPoint x="526" y="1240" />
              <mxPoint x="525" y="1240" />
            </Array>
            <mxPoint x="558.0009703885685" y="1245.4909703885685" as="targetPoint" />
          </mxGeometry>
        </mxCell>
        <mxCell id="fYyy_811mpqIWrKKwp8T-100" value="Bus data" style="html=1;dashed=0;whiteSpace=wrap;shape=partialRectangle;right=0;left=0;" vertex="1" parent="1">
          <mxGeometry x="635.52" y="1214.01" width="100" height="30" as="geometry" />
        </mxCell>
        <mxCell id="fYyy_811mpqIWrKKwp8T-101" style="edgeStyle=orthogonalEdgeStyle;rounded=0;orthogonalLoop=1;jettySize=auto;html=1;entryX=1.018;entryY=0.471;entryDx=0;entryDy=0;entryPerimeter=0;exitX=0.25;exitY=0;exitDx=0;exitDy=0;curved=1;" edge="1" parent="1" source="fYyy_811mpqIWrKKwp8T-83" target="fYyy_811mpqIWrKKwp8T-117">
          <mxGeometry relative="1" as="geometry">
            <mxPoint x="285.5499999999997" y="1342.22" as="targetPoint" />
          </mxGeometry>
        </mxCell>
        <mxCell id="fYyy_811mpqIWrKKwp8T-120" value="data" style="edgeLabel;html=1;align=center;verticalAlign=middle;resizable=0;points=[];" connectable="0" vertex="1" parent="fYyy_811mpqIWrKKwp8T-101">
          <mxGeometry x="0.0233" y="-2" relative="1" as="geometry">
            <mxPoint x="-3" y="-6" as="offset" />
          </mxGeometry>
        </mxCell>
        <mxCell id="fYyy_811mpqIWrKKwp8T-104" value="LEVEL - 3" style="text;html=1;align=center;verticalAlign=middle;resizable=0;points=[];autosize=1;strokeColor=none;fillColor=none;fontStyle=1;fontSize=15;" vertex="1" parent="1">
          <mxGeometry x="490" y="750" width="90" height="30" as="geometry" />
        </mxCell>
        <mxCell id="fYyy_811mpqIWrKKwp8T-105" value="Enter&lt;br&gt;Course Code" style="ellipse;whiteSpace=wrap;html=1;aspect=fixed;" vertex="1" parent="1">
          <mxGeometry x="505" y="850" width="60" height="60" as="geometry" />
        </mxCell>
        <mxCell id="fYyy_811mpqIWrKKwp8T-109" style="edgeStyle=orthogonalEdgeStyle;rounded=0;orthogonalLoop=1;jettySize=auto;html=1;entryX=0.037;entryY=0.524;entryDx=0;entryDy=0;entryPerimeter=0;curved=1;exitX=0.5;exitY=0;exitDx=0;exitDy=0;" edge="1" parent="1" source="fYyy_811mpqIWrKKwp8T-68" target="fYyy_811mpqIWrKKwp8T-105">
          <mxGeometry relative="1" as="geometry" />
        </mxCell>
        <mxCell id="fYyy_811mpqIWrKKwp8T-110" style="edgeStyle=orthogonalEdgeStyle;rounded=0;orthogonalLoop=1;jettySize=auto;html=1;entryX=1;entryY=0.5;entryDx=0;entryDy=0;curved=1;exitX=0.47;exitY=1.009;exitDx=0;exitDy=0;exitPerimeter=0;" edge="1" parent="1" source="fYyy_811mpqIWrKKwp8T-105" target="fYyy_811mpqIWrKKwp8T-68">
          <mxGeometry relative="1" as="geometry">
            <mxPoint x="482" y="950.5" as="sourcePoint" />
            <mxPoint x="549" y="930.5" as="targetPoint" />
          </mxGeometry>
        </mxCell>
        <mxCell id="fYyy_811mpqIWrKKwp8T-111" value="View&lt;br&gt;Query&lt;br&gt;Answer" style="ellipse;whiteSpace=wrap;html=1;aspect=fixed;" vertex="1" parent="1">
          <mxGeometry x="683.79" y="991" width="60" height="60" as="geometry" />
        </mxCell>
        <mxCell id="fYyy_811mpqIWrKKwp8T-113" style="edgeStyle=orthogonalEdgeStyle;rounded=0;orthogonalLoop=1;jettySize=auto;html=1;entryX=1;entryY=0.5;entryDx=0;entryDy=0;curved=1;exitX=0.07;exitY=0.753;exitDx=0;exitDy=0;exitPerimeter=0;" edge="1" parent="1" source="fYyy_811mpqIWrKKwp8T-111" target="fYyy_811mpqIWrKKwp8T-86">
          <mxGeometry relative="1" as="geometry">
            <Array as="points">
              <mxPoint x="688" y="1061" />
            </Array>
          </mxGeometry>
        </mxCell>
        <mxCell id="fYyy_811mpqIWrKKwp8T-114" value="Answer&lt;br&gt;Query" style="ellipse;whiteSpace=wrap;html=1;aspect=fixed;" vertex="1" parent="1">
          <mxGeometry x="660" y="1110" width="60" height="60" as="geometry" />
        </mxCell>
        <mxCell id="fYyy_811mpqIWrKKwp8T-119" style="edgeStyle=orthogonalEdgeStyle;rounded=0;orthogonalLoop=1;jettySize=auto;html=1;entryX=0.5;entryY=1;entryDx=0;entryDy=0;curved=1;" edge="1" parent="1" source="fYyy_811mpqIWrKKwp8T-117" target="fYyy_811mpqIWrKKwp8T-82">
          <mxGeometry relative="1" as="geometry" />
        </mxCell>
        <mxCell id="fYyy_811mpqIWrKKwp8T-117" value="Search&lt;br&gt;event" style="ellipse;whiteSpace=wrap;html=1;aspect=fixed;" vertex="1" parent="1">
          <mxGeometry x="300" y="1221" width="70" height="70" as="geometry" />
        </mxCell>
        <mxCell id="fYyy_811mpqIWrKKwp8T-128" style="edgeStyle=orthogonalEdgeStyle;rounded=0;orthogonalLoop=1;jettySize=auto;html=1;entryX=0.653;entryY=0.988;entryDx=0;entryDy=0;entryPerimeter=0;curved=1;" edge="1" parent="1" source="fYyy_811mpqIWrKKwp8T-114" target="fYyy_811mpqIWrKKwp8T-86">
          <mxGeometry relative="1" as="geometry" />
        </mxCell>
        <mxCell id="fYyy_811mpqIWrKKwp8T-129" value="manage&lt;br&gt;event" style="ellipse;whiteSpace=wrap;html=1;aspect=fixed;" vertex="1" parent="1">
          <mxGeometry x="930" y="1255" width="70" height="70" as="geometry" />
        </mxCell>
        <mxCell id="fYyy_811mpqIWrKKwp8T-131" style="edgeStyle=orthogonalEdgeStyle;rounded=0;orthogonalLoop=1;jettySize=auto;html=1;entryX=0.601;entryY=1.145;entryDx=0;entryDy=0;entryPerimeter=0;curved=1;" edge="1" parent="1" source="fYyy_811mpqIWrKKwp8T-129" target="fYyy_811mpqIWrKKwp8T-83">
          <mxGeometry relative="1" as="geometry">
            <Array as="points">
              <mxPoint x="965" y="1360" />
              <mxPoint x="510" y="1360" />
            </Array>
          </mxGeometry>
        </mxCell>
        <mxCell id="fYyy_811mpqIWrKKwp8T-133" value="View&lt;br&gt;details" style="ellipse;whiteSpace=wrap;html=1;aspect=fixed;" vertex="1" parent="1">
          <mxGeometry x="40" y="1320" width="70" height="70" as="geometry" />
        </mxCell>
        <mxCell id="fYyy_811mpqIWrKKwp8T-134" style="edgeStyle=orthogonalEdgeStyle;rounded=0;orthogonalLoop=1;jettySize=auto;html=1;entryX=0.277;entryY=0.089;entryDx=0;entryDy=0;entryPerimeter=0;" edge="1" parent="1" source="fYyy_811mpqIWrKKwp8T-73" target="fYyy_811mpqIWrKKwp8T-133">
          <mxGeometry relative="1" as="geometry">
            <Array as="points">
              <mxPoint x="59" y="1298" />
            </Array>
          </mxGeometry>
        </mxCell>
        <mxCell id="fYyy_811mpqIWrKKwp8T-135" style="edgeStyle=orthogonalEdgeStyle;rounded=0;orthogonalLoop=1;jettySize=auto;html=1;entryX=0.58;entryY=0.983;entryDx=0;entryDy=0;entryPerimeter=0;" edge="1" parent="1" source="fYyy_811mpqIWrKKwp8T-133" target="fYyy_811mpqIWrKKwp8T-73">
          <mxGeometry relative="1" as="geometry">
            <Array as="points">
              <mxPoint x="80" y="1298" />
              <mxPoint x="81" y="1298" />
            </Array>
          </mxGeometry>
        </mxCell>
        <mxCell id="Is7_Ylc0VgrU2KLMRWV5-1" value="Manage&lt;br&gt;faculty data" style="ellipse;whiteSpace=wrap;html=1;aspect=fixed;" vertex="1" parent="1">
          <mxGeometry x="335" y="1440" width="75" height="75" as="geometry" />
        </mxCell>
        <mxCell id="Is7_Ylc0VgrU2KLMRWV5-2" style="edgeStyle=orthogonalEdgeStyle;rounded=0;orthogonalLoop=1;jettySize=auto;html=1;entryX=0.657;entryY=1.131;entryDx=0;entryDy=0;entryPerimeter=0;curved=1;exitX=0.5;exitY=1;exitDx=0;exitDy=0;" edge="1" parent="1" source="Is7_Ylc0VgrU2KLMRWV5-1" target="fYyy_811mpqIWrKKwp8T-77">
          <mxGeometry relative="1" as="geometry">
            <Array as="points">
              <mxPoint x="373" y="1530" />
              <mxPoint x="196" y="1530" />
            </Array>
          </mxGeometry>
        </mxCell>
        <mxCell id="Is7_Ylc0VgrU2KLMRWV5-3" style="edgeStyle=orthogonalEdgeStyle;rounded=0;orthogonalLoop=1;jettySize=auto;html=1;curved=1;" edge="1" parent="1" source="fYyy_811mpqIWrKKwp8T-91">
          <mxGeometry relative="1" as="geometry">
            <mxPoint x="409" y="1480" as="targetPoint" />
            <Array as="points">
              <mxPoint x="1090" y="1450" />
              <mxPoint x="610" y="1450" />
              <mxPoint x="610" y="1480" />
            </Array>
          </mxGeometry>
        </mxCell>
        <mxCell id="Is7_Ylc0VgrU2KLMRWV5-5" value="Search&lt;br&gt;Bus route" style="ellipse;whiteSpace=wrap;html=1;aspect=fixed;" vertex="1" parent="1">
          <mxGeometry x="493" y="1156" width="65" height="65" as="geometry" />
        </mxCell>
        <mxCell id="Is7_Ylc0VgrU2KLMRWV5-11" style="edgeStyle=orthogonalEdgeStyle;rounded=0;orthogonalLoop=1;jettySize=auto;html=1;entryX=0.75;entryY=0;entryDx=0;entryDy=0;curved=1;" edge="1" parent="1" source="Is7_Ylc0VgrU2KLMRWV5-10" target="fYyy_811mpqIWrKKwp8T-100">
          <mxGeometry relative="1" as="geometry" />
        </mxCell>
        <mxCell id="Is7_Ylc0VgrU2KLMRWV5-10" value="manage&lt;br&gt;buses" style="ellipse;whiteSpace=wrap;html=1;aspect=fixed;" vertex="1" parent="1">
          <mxGeometry x="810" y="1205" width="70" height="70" as="geometry" />
        </mxCell>
        <mxCell id="Is7_Ylc0VgrU2KLMRWV5-14" style="edgeStyle=orthogonalEdgeStyle;rounded=0;orthogonalLoop=1;jettySize=auto;html=1;entryX=0;entryY=1;entryDx=0;entryDy=0;curved=1;exitX=0.5;exitY=1;exitDx=0;exitDy=0;" edge="1" parent="1" source="fYyy_811mpqIWrKKwp8T-100" target="Is7_Ylc0VgrU2KLMRWV5-10">
          <mxGeometry relative="1" as="geometry" />
        </mxCell>
        <mxCell id="Is7_Ylc0VgrU2KLMRWV5-17" style="edgeStyle=orthogonalEdgeStyle;rounded=0;orthogonalLoop=1;jettySize=auto;html=1;entryX=1.026;entryY=0.382;entryDx=0;entryDy=0;entryPerimeter=0;curved=1;exitX=0.75;exitY=1;exitDx=0;exitDy=0;" edge="1" parent="1" source="fYyy_811mpqIWrKKwp8T-91" target="fYyy_811mpqIWrKKwp8T-129">
          <mxGeometry relative="1" as="geometry">
            <Array as="points">
              <mxPoint x="1070" y="1010" />
              <mxPoint x="1070" y="1200" />
              <mxPoint x="1042" y="1200" />
              <mxPoint x="1042" y="1282" />
            </Array>
          </mxGeometry>
        </mxCell>
        <mxCell id="Is7_Ylc0VgrU2KLMRWV5-19" style="edgeStyle=orthogonalEdgeStyle;rounded=0;orthogonalLoop=1;jettySize=auto;html=1;entryX=0.118;entryY=1.037;entryDx=0;entryDy=0;entryPerimeter=0;curved=1;" edge="1" parent="1" source="fYyy_811mpqIWrKKwp8T-114" target="fYyy_811mpqIWrKKwp8T-88">
          <mxGeometry relative="1" as="geometry" />
        </mxCell>
        <mxCell id="Is7_Ylc0VgrU2KLMRWV5-22" style="edgeStyle=orthogonalEdgeStyle;rounded=0;orthogonalLoop=1;jettySize=auto;html=1;entryX=0.402;entryY=1.024;entryDx=0;entryDy=0;entryPerimeter=0;curved=1;" edge="1" parent="1" source="fYyy_811mpqIWrKKwp8T-82" target="fYyy_811mpqIWrKKwp8T-65">
          <mxGeometry relative="1" as="geometry">
            <Array as="points">
              <mxPoint x="270" y="1101" />
              <mxPoint x="308" y="1101" />
            </Array>
          </mxGeometry>
        </mxCell>
        <mxCell id="Is7_Ylc0VgrU2KLMRWV5-24" style="edgeStyle=orthogonalEdgeStyle;rounded=0;orthogonalLoop=1;jettySize=auto;html=1;entryX=0.808;entryY=0.01;entryDx=0;entryDy=0;entryPerimeter=0;curved=1;exitX=0.024;exitY=0.809;exitDx=0;exitDy=0;exitPerimeter=0;" edge="1" parent="1" source="fYyy_811mpqIWrKKwp8T-68" target="fYyy_811mpqIWrKKwp8T-65">
          <mxGeometry relative="1" as="geometry" />
        </mxCell>
        <mxCell id="Is7_Ylc0VgrU2KLMRWV5-25" style="edgeStyle=orthogonalEdgeStyle;rounded=0;orthogonalLoop=1;jettySize=auto;html=1;curved=1;" edge="1" parent="1" source="fYyy_811mpqIWrKKwp8T-73">
          <mxGeometry relative="1" as="geometry">
            <mxPoint x="260" y="1050" as="targetPoint" />
            <Array as="points">
              <mxPoint x="75" y="1050" />
            </Array>
          </mxGeometry>
        </mxCell>
      </root>
    </mxGraphModel>
  </diagram>
</mxfile>
